HIERARCHY
ROOT Hips
{
	OFFSET 0.000000 0.000000 0.000000
	CHANNELS 6 Xposition Yposition Zposition Zrotation Yrotation Xrotation 
	JOINT LHipJoint
	{
		OFFSET 0.000000 0.000000 0.000000
		CHANNELS 3 Zrotation Yrotation Xrotation
		JOINT LeftUpLeg
		{
			OFFSET 1.363060 -1.794630 0.839290
			CHANNELS 3 Zrotation Yrotation Xrotation
			JOINT LeftLeg
			{
				OFFSET 2.448110 -6.726130 0.000000
				CHANNELS 3 Zrotation Yrotation Xrotation
				JOINT LeftFoot
				{
					OFFSET 2.562200 -7.039590 0.000000
					CHANNELS 3 Zrotation Yrotation Xrotation
					JOINT LeftToeBase
					{
						OFFSET 0.157640 -0.433110 2.322550
						CHANNELS 3 Zrotation Yrotation Xrotation
						End Site
						{
							OFFSET 0.000000 0.000000 0.000000
						}
					}
				}
			}
		}
	}
	JOINT RHipJoint
	{
		OFFSET 0.000000 0.000000 0.000000
		CHANNELS 3 Zrotation Yrotation Xrotation
		JOINT RightUpLeg
		{
			OFFSET -1.305520 -1.794630 0.839290
			CHANNELS 3 Zrotation Yrotation Xrotation
			JOINT RightLeg
			{
				OFFSET -2.542530 -6.985550 0.000000
				CHANNELS 3 Zrotation Yrotation Xrotation
				JOINT RightFoot
				{
					OFFSET -2.568260 -7.056230 0.000000
					CHANNELS 3 Zrotation Yrotation Xrotation
					JOINT RightToeBase
					{
						OFFSET -0.164730 -0.452590 2.363150
						CHANNELS 3 Zrotation Yrotation Xrotation
						End Site
						{
							OFFSET 0.000000 0.000000 0.000000
						}
					}
				}
			}
		}
	}
}
MOTION
Frames: 13
Frame Time: 0.008333
2.160593 17.199682 0.247890 -16.378124 -84.000760 10.684744 -11.057485 3.248306 1.766715 -6.008295 8.505750 -0.664923 -1.142913 0.431054 16.277231 2.480424 15.245264 -10.176450 -0.746000 -0.000000 -34.085100 10.520873 -2.387408 -2.172284 -0.296922 -21.137410 -8.254292 -0.122515 -2.575572 39.831637 -1.064893 -5.082968 8.884699 -1.333000 0.000000 -83.295000
2.164276 17.199927 0.305437 -17.573706 -83.652908 11.714676 -11.088661 3.228436 1.773948 -5.902840 8.453423 -0.315258 -1.132780 0.407721 15.985511 2.449354 15.014180 -10.270755 -0.767400 -0.000000 -33.943900 10.609877 -2.280400 -2.271417 -0.473510 -21.719181 -10.157032 -0.323256 -2.735021 42.971978 -1.151752 -5.119883 10.874897 -1.413101 -0.000000 -82.720401
2.170109 17.199047 0.361781 -18.883040 -83.327504 12.868504 -11.124648 3.199492 1.772589 -5.771798 8.429494 -0.019129 -1.120082 0.385840 15.767771 2.420411 14.790940 -10.396983 -0.797600 0.000000 -33.808700 10.681301 -2.152227 -2.367790 -0.561400 -22.238095 -12.146864 -0.505310 -2.886147 46.139111 -1.265265 -5.309618 12.663954 -1.527000 -0.000000 -81.397500
2.178405 17.197030 0.416595 -20.287768 -83.029159 14.118132 -11.163564 3.162200 1.762867 -5.622661 8.419873 0.229096 -1.103977 0.367473 15.636658 2.397054 14.597166 -10.554493 -0.836600 0.000000 -33.674400 10.734842 -2.005475 -2.470535 -0.569472 -22.723605 -14.215004 -0.665049 -3.037116 49.326196 -1.391094 -5.626913 14.127071 -1.673700 0.000000 -79.454700
2.189212 17.194088 0.470026 -21.889907 -82.771278 15.578714 -11.208830 3.115189 1.745791 -5.447100 8.441247 0.392670 -1.084197 0.352567 15.621668 2.379197 14.432115 -10.751381 -0.886700 0.000000 -33.540600 10.766651 -1.849199 -2.572396 -0.459004 -23.144986 -16.396838 -0.805721 -3.196840 52.543236 -1.519945 -6.079784 15.167914 -1.858900 -0.000000 -77.087400
2.202750 17.190263 0.521874 -23.612939 -82.551607 17.155877 -11.255962 3.061156 1.721255 -5.261609 8.465362 0.506322 -1.060145 0.343548 15.712405 2.371077 14.323318 -10.978133 -0.945900 -0.000000 -33.397201 10.780987 -1.683793 -2.689734 -0.262704 -23.562539 -18.666392 -0.932166 -3.372829 55.773046 -1.636872 -6.598984 15.709798 -2.051400 0.000000 -74.551801
2.219196 17.185672 0.572195 -25.473784 -82.372498 18.862645 -11.304977 3.000663 1.688196 -5.067890 8.489838 0.577272 -1.031648 0.341214 15.906760 2.373441 14.276922 -11.229944 -1.013600 -0.000000 -33.240200 10.778711 -1.512972 -2.826168 0.024204 -23.984867 -21.026586 -1.052494 -3.570876 59.009765 -1.733257 -7.137646 15.716456 -2.222300 -0.000000 -72.064900
2.238655 17.180559 0.621245 -27.520408 -82.238915 20.757133 -11.356813 2.933850 1.646991 -4.865912 8.527583 0.587369 -0.999555 0.344828 16.208024 2.385120 14.286621 -11.505977 -1.090100 0.000000 -33.070300 10.759870 -1.340548 -2.975627 0.425901 -24.391425 -23.507756 -1.175718 -3.793742 62.254819 -1.804812 -7.656208 15.194641 -2.345400 -0.000000 -69.784900
2.261337 17.174923 0.669140 -29.720393 -82.142661 22.786078 -11.410041 2.862449 1.594084 -4.659293 8.567489 0.581415 -0.963717 0.355591 16.585431 2.406172 14.356000 -11.790795 -1.172100 -0.000000 -32.885600 10.726832 -1.165976 -3.149019 0.923052 -24.816449 -26.079586 -1.307319 -4.042270 65.485540 -1.844303 -8.071695 14.170005 -2.380101 -0.000000 -67.792100
2.287176 17.168941 0.716105 -32.088367 -82.083193 24.975305 -11.464656 2.787177 1.529189 -4.449771 8.623181 0.550299 -0.925743 0.372144 17.027903 2.434074 14.470571 -12.080079 -1.258401 -0.000000 -32.690300 10.679718 -0.990029 -3.339239 1.533633 -25.236439 -28.766328 -1.452804 -4.314574 68.697396 -1.850907 -8.342578 12.715133 -2.313400 -0.000000 -66.111400
2.316116 17.162660 0.762274 -34.603239 -82.053768 27.301021 -11.519885 2.709265 1.450629 -4.239677 8.698191 0.510651 -0.886828 0.393877 17.510201 2.466551 14.618168 -12.364200 -1.346200 0.000000 -32.488399 10.618945 -0.811645 -3.545547 2.257400 -25.648903 -31.564995 -1.614788 -4.607305 71.873531 -1.823706 -8.424448 10.923027 -2.143100 0.000001 -64.724600
2.348019 17.156163 0.807814 -37.249614 -82.045038 29.741993 -11.575896 2.629632 1.355876 -4.025868 8.796810 0.486288 -0.847738 0.420199 18.002948 2.501011 14.784771 -12.633163 -1.432200 -0.000000 -32.286000 10.544082 -0.630366 -3.767600 3.092616 -26.050033 -34.461452 -1.794137 -4.915889 74.992908 -1.763573 -8.291483 8.901380 -1.885100 0.000000 -63.598300
2.382623 17.149486 0.852805 -39.992809 -82.049138 32.267056 -11.632119 2.548956 1.244829 -3.810092 8.923129 0.481972 -0.809842 0.449951 18.486585 2.534882 14.955051 -12.882066 -1.514100 -0.000000 -32.087900 10.454327 -0.444864 -4.000313 4.042078 -26.424851 -37.458100 -1.991630 -5.234882 78.040062 -1.674899 -7.948334 6.774238 -1.573100 0.000000 -62.703300
